<svg width="5082" height="4200" viewBox="0 0 5082 4200" fill="none" xmlns="http://www.w3.org/2000/svg">
<g clip-path="url(#clip0_0_1)" filter="url(#filter0_d_0_1)">
<path d="M2151.72 2477.8C2334.94 2477.8 2483.48 2301.34 2483.48 2083.66C2483.48 1865.98 2334.94 1689.52 2151.72 1689.52C1968.49 1689.52 1819.96 1865.98 1819.96 2083.66C1819.96 2301.34 1968.49 2477.8 2151.72 2477.8Z" fill="#00BF22"/>
<path d="M2148.71 2796.43L2151.43 2081.48" stroke="#3F3D56" stroke-width="2" stroke-miterlimit="10"/>
<path d="M2151.43 2182.59C2198.43 2182.59 2236.53 2137.33 2236.53 2081.49C2236.53 2025.65 2198.43 1980.38 2151.43 1980.38C2104.43 1980.38 2066.33 2025.65 2066.33 2081.49C2066.33 2137.33 2104.43 2182.59 2151.43 2182.59Z" fill="#3F3D56"/>
<path d="M2149.75 2522.13C2149.75 2522.13 2138.78 2211.41 1889.41 2246.18Z" fill="#3F3D56"/>
<path d="M761.938 1686.49C945.163 1686.49 1093.7 1510.02 1093.7 1292.34C1093.7 1074.67 945.163 898.203 761.938 898.203C578.713 898.203 430.18 1074.67 430.18 1292.34C430.18 1510.02 578.713 1686.49 761.938 1686.49Z" fill="#00BF22"/>
<path d="M743.156 2747.41L762.25 1291.91" stroke="#3F3D56" stroke-width="2" stroke-miterlimit="10"/>
<path d="M762.251 1393.01C809.252 1393.01 847.354 1347.74 847.354 1291.9C847.354 1236.06 809.252 1190.8 762.251 1190.8C715.25 1190.8 677.148 1236.06 677.148 1291.9C677.148 1347.74 715.25 1393.01 762.251 1393.01Z" fill="#3F3D56"/>
<path d="M756.847 1703.61C756.847 1703.61 748.766 1392.77 499.094 1424.26Z" fill="#3F3D56"/>
<path d="M743.515 2719.62C743.515 2719.62 806.053 2123.32 490.375 2088.59" stroke="#3F3D56" stroke-width="2" stroke-miterlimit="10"/>
<path d="M490.376 2189.69C537.377 2189.69 575.478 2144.43 575.478 2088.59C575.478 2032.75 537.377 1987.48 490.376 1987.48C443.375 1987.48 405.273 2032.75 405.273 2088.59C405.273 2144.43 443.375 2189.69 490.376 2189.69Z" fill="#3F3D56"/>
<path d="M1475.38 811.47C1658.61 811.47 1807.14 635.007 1807.14 417.329C1807.14 199.651 1658.61 23.1875 1475.38 23.1875C1292.16 23.1875 1143.62 199.651 1143.62 417.329C1143.62 635.007 1292.16 811.47 1475.38 811.47Z" fill="#00BF22"/>
<path d="M1475.59 2803.53V418.773" stroke="#3F3D56" stroke-width="2" stroke-miterlimit="10"/>
<path d="M1475.59 518.749C1522.59 518.749 1560.69 473.483 1560.69 417.644C1560.69 361.805 1522.59 316.539 1475.59 316.539C1428.59 316.539 1390.48 361.805 1390.48 417.644C1390.48 473.483 1428.59 518.749 1475.59 518.749Z" fill="#3F3D56"/>
<path d="M1214.2 2244.14C1261.2 2244.14 1299.31 2198.87 1299.31 2143.03C1299.31 2087.2 1261.2 2041.93 1214.2 2041.93C1167.2 2041.93 1129.1 2087.2 1129.1 2143.03C1129.1 2198.87 1167.2 2244.14 1214.2 2244.14Z" fill="#3F3D56"/>
<path d="M1475.59 934.095C1475.59 934.095 1463.43 623.444 1214.2 659.553Z" fill="#3F3D56"/>
<path d="M1475.59 1814.76C1475.59 1814.76 1463.43 1504.11 1214.2 1540.22Z" fill="#3F3D56"/>
<path d="M1475.59 2775.74C1475.59 2775.74 1530.3 2171.92 1214.2 2143.03" stroke="#3F3D56" stroke-width="2" stroke-miterlimit="10"/>
<path d="M1742.2 1295.73C1789.2 1295.73 1827.3 1250.47 1827.3 1194.63C1827.3 1138.79 1789.2 1093.52 1742.2 1093.52C1695.2 1093.52 1657.09 1138.79 1657.09 1194.63C1657.09 1250.47 1695.2 1295.73 1742.2 1295.73Z" fill="#3F3D56"/>
<path d="M1480.81 1795.14C1480.81 1795.14 1426.1 1223.52 1742.2 1194.63" stroke="#3F3D56" stroke-width="2" stroke-miterlimit="10"/>
<path d="M3085.2 2802.15C3124.13 2802.15 3155.69 2764.66 3155.69 2718.41C3155.69 2672.16 3124.13 2634.66 3085.2 2634.66C3046.27 2634.66 3014.71 2672.16 3014.71 2718.41C3014.71 2764.66 3046.27 2802.15 3085.2 2802.15Z" fill="#3F3D56"/>
<path d="M1480.25 3974.54C2061.19 3974.54 2532.15 3415.03 2532.15 2724.84H428.352C428.352 3415.03 899.302 3974.54 1480.25 3974.54Z" fill="#00BF22"/>
<path d="M4466.68 3250.21C4985.08 2938.68 5192.75 2186.86 4930.52 1570.98L3053.23 2699.14C3315.46 3315.02 3948.28 3561.74 4466.68 3250.21Z" fill="#0C8209"/>
<path d="M4504.7 924.405C4508.19 921.586 4511.57 918.576 4514.85 915.43C4508.01 939.763 4496.98 962.139 4482.47 981.138V981.138C4479.08 985.579 4475.45 989.736 4471.73 993.757C4471.66 992.738 4471.57 991.72 4471.53 990.702C4471.1 980.847 4471.7 970.476 4471.81 960.327C4484.74 951.176 4495.94 938.946 4504.7 924.405V924.405Z" fill="url(#paint0_linear_0_1)"/>
<path d="M4555.57 565.007C4563.46 549.206 4568.01 531.369 4568.83 513.022C4569.65 494.675 4566.71 476.366 4560.28 459.662C4553.84 442.957 4544.09 428.355 4531.86 417.106C4519.63 405.857 4505.29 398.296 4490.07 395.071C4474.85 391.845 4459.19 393.051 4444.44 398.585C4429.7 404.119 4416.3 413.816 4405.4 426.847C4394.5 439.877 4386.41 455.852 4381.84 473.405C4377.28 490.957 4376.36 509.563 4379.16 527.631C4351.8 543.111 4328.9 567.859 4313.35 598.76C4297.8 629.662 4290.29 665.337 4291.76 701.299C4278.69 725.137 4270.48 752.271 4267.79 780.541C4265.1 808.811 4268.01 837.436 4276.27 864.138C4284.54 890.84 4297.94 914.881 4315.4 934.347C4332.86 953.813 4353.91 968.167 4376.87 976.266C4399.82 984.365 4424.05 985.984 4447.63 980.997C4471.21 976.009 4493.48 964.552 4512.67 947.537C4531.86 930.522 4547.44 908.418 4558.18 882.987C4568.91 857.556 4574.5 829.498 4574.5 801.048C4574.5 798.134 4574.43 795.24 4574.32 792.36C4593.4 757.571 4601.94 716.099 4598.53 674.774C4595.12 633.449 4579.97 594.735 4555.57 565.007Z" fill="#2F2E41"/>
<g opacity="0.1">
<path d="M4377.89 498.771C4378.32 498.522 4378.73 498.236 4379.16 497.991C4378.85 496.023 4378.64 494.021 4378.43 492.023C4378.38 492.441 4378.31 492.85 4378.27 493.27C4378.08 495.112 4378 496.94 4377.89 498.771Z" fill="black"/>
<path d="M4598.16 684.849C4595.36 712.639 4587.2 739.288 4574.32 762.723C4574.43 765.603 4574.5 768.497 4574.5 771.411C4574.51 818.609 4559.15 863.979 4531.63 898.021C4504.11 932.064 4466.58 952.138 4426.88 954.042C4387.19 955.946 4348.41 939.531 4318.67 908.235C4288.94 876.938 4270.54 833.187 4267.35 786.143C4267.01 791.063 4266.8 796.027 4266.8 801.051C4266.8 849.527 4283.01 896.018 4311.87 930.295C4340.72 964.573 4379.85 983.83 4420.65 983.83C4461.46 983.83 4500.59 964.573 4529.44 930.295C4558.29 896.018 4574.5 849.527 4574.5 801.051C4574.5 798.137 4574.43 795.243 4574.32 792.362C4592.97 758.4 4601.56 718.015 4598.72 677.602C4598.55 680.014 4598.4 682.424 4598.16 684.849Z" fill="black"/>
<path d="M4568.19 491.898C4566.53 507.261 4562.24 522.055 4555.57 535.366C4558.26 538.648 4560.8 542.088 4563.28 545.596C4568.52 528.426 4570.21 510.007 4568.19 491.898H4568.19Z" fill="black"/>
</g>
<path d="M3935.59 2526.02C3936.33 2536.42 3938.7 2546.56 3942.59 2555.92C3944.57 2560.58 3947.45 2564.62 3950.99 2567.7C3954.54 2570.79 3958.65 2572.83 3962.98 2573.67C3970.96 2573.73 3978.77 2571.03 3985.48 2565.91C3999.18 2557.42 4013.4 2547.54 4020.55 2531.26C4027.47 2515.5 4026.47 2496.7 4025.3 2478.98L4016.11 2339.61C3993.95 2338.88 3971.69 2338.89 3949.55 2340.33C3927.62 2341.75 3923.77 2347.88 3926.82 2373.32C3932.9 2423.94 3929.94 2475.36 3935.59 2526.02Z" fill="#FBBEBE"/>
<path d="M4585.67 2620.22L4638.39 2721.42C4640.66 2727.31 4644.77 2731.9 4649.86 2734.23C4653.64 2734.88 4657.5 2734.08 4660.87 2731.95C4678.46 2722.82 4691.92 2705.49 4704.83 2688.63C4713.59 2677.18 4722.65 2665.12 4725.94 2650.15C4727.64 2642.03 4727.56 2633.53 4725.72 2625.46C4723.88 2617.39 4720.32 2610.01 4715.4 2604.03C4709.25 2597.66 4702.59 2592.01 4695.53 2587.15C4653.85 2553.75 4635.04 2490.31 4593.89 2455.99C4591.52 2453.64 4588.62 2452.16 4585.56 2451.73C4582.5 2451.94 4579.55 2453.12 4577 2455.14C4558.25 2467.35 4539.5 2479.56 4520.75 2491.77C4496.39 2507.6 4504.12 2509.45 4522.61 2526.51C4549.86 2551.62 4566.88 2586.74 4585.67 2620.22Z" fill="#FBBEBE"/>
<path d="M4050.04 2445.41C4042.31 2442.52 4033.66 2439.92 4026.38 2444.13C4022.97 2446.6 4020.09 2449.97 4017.96 2453.97C4015.82 2457.98 4014.48 2462.51 4014.05 2467.22C4012.58 2476.52 4012.76 2486.18 4010.59 2495.28C4006.92 2510.63 3997.08 2522.62 3987.59 2533.91C3983.76 2539.35 3978.77 2543.47 3973.15 2545.85C3965.55 2548.17 3957.46 2543.94 3949.73 2545.54C3945.23 2546.91 3941.13 2549.72 3937.87 2553.67C3934.61 2557.61 3932.33 2562.54 3931.26 2567.91C3929.25 2578.69 3928.94 2589.82 3930.35 2600.73L3936.34 2678.41C3937.4 2687.88 3937.48 2697.47 3936.58 2706.96C3934.38 2724.03 3926.02 2739.02 3921.39 2755.4C3916.75 2771.77 3917.01 2792.68 3928.61 2803.1C3932.66 2806.3 3937.33 2808.25 3942.18 2808.76C3947.03 2809.27 3951.9 2808.32 3956.37 2806C3965.25 2801.24 3973.11 2794.15 3979.35 2785.26C4014.87 2739.26 4030.72 2676.94 4058.34 2623.84C4065.39 2611.56 4071.7 2598.7 4077.21 2585.36C4081 2575.04 4083.41 2564.1 4086.48 2553.45C4090.72 2539.22 4095.8 2525.37 4101.69 2512C4104.97 2504.35 4117.55 2485.93 4114.91 2477.38C4110.4 2462.81 4062 2449.89 4050.04 2445.41Z" fill="#2F2E41"/>
<path d="M4690.35 2659.68C4682.36 2677.48 4669.02 2691.06 4652.99 2697.71C4648.34 2699.21 4644.01 2701.87 4640.29 2705.52C4637.85 2709.06 4636.34 2713.37 4635.95 2717.92C4635.55 2722.47 4636.29 2727.05 4638.07 2731.11C4641.74 2739.13 4646.52 2746.37 4652.2 2752.53C4684.07 2792.61 4705.16 2843.08 4712.74 2897.48C4714.63 2911.21 4715.86 2925.8 4722.78 2937.02C4736.28 2958.94 4765.03 2957.51 4785.34 2945.01C4791.54 2941.64 4796.92 2936.45 4800.99 2929.94C4804.37 2922.88 4806.52 2915.08 4807.31 2907.01C4810.98 2887.02 4813.01 2866.64 4813.36 2846.18C4812.96 2807.56 4800.75 2770.64 4794.92 2732.64C4786.64 2678.72 4790.79 2620.63 4769.65 2571.91C4767.55 2566.19 4764.22 2561.22 4760 2557.49C4754.71 2554.19 4748.78 2552.61 4742.81 2552.91C4723.71 2551.98 4704.6 2551.78 4685.48 2552.31C4680.13 2552.46 4673.86 2553.26 4671.09 2558.71C4668.25 2564.28 4670.73 2571.38 4673.22 2577.18C4685.05 2604.69 4704.23 2626.68 4690.35 2659.68Z" fill="#2F2E41"/>
<path d="M4236.71 1693.11C4231.37 1698.35 4227.75 1705.65 4226.48 1713.74C4225.22 1721.83 4226.39 1730.19 4229.79 1737.35C4234.03 1745.69 4241.62 1753.45 4239.96 1762.98C4238.23 1772.88 4227.99 1776.24 4219.59 1777.82C4145.55 1791.82 4073.49 1817.57 4001.7 1843.25L3926.4 1870.18C3904.69 1877.95 3882.6 1885.93 3863.84 1901.06C3846.62 1914.99 3833 1934.33 3824.48 1956.91C3815.87 1979.84 3812.91 2005.1 3809.84 2029.94C3798.53 2121.36 3784.09 2213.69 3749.76 2296.59L3932.39 2367.74C3950.1 2375.46 3968.44 2380.95 3987.11 2384.1C4004.92 2385.86 4022.84 2384.83 4040.41 2381.04C4039.28 2332.59 4038.59 2282.68 4037.45 2234.23C4037.33 2218.93 4036.5 2203.64 4034.95 2188.45C4032.21 2165.23 4026.15 2142.65 4024.26 2119.31C4032.68 2111.05 4044.93 2113.11 4055.84 2113.48C4080.76 2114.35 4105.08 2104.06 4127.24 2090.5C4149.4 2076.93 4170 2060.03 4192.03 2046.19C4228.75 2023.12 4270.5 2007.61 4298.52 1971.2C4284.25 2035.83 4250.52 2092.15 4244 2158.52C4237.41 2225.58 4260.38 2291.21 4282.87 2353.21L4354.72 2551.31C4362.65 2573.18 4373.22 2597.77 4392.77 2602.98C4404.96 2606.23 4417.53 2600.8 4428.84 2594.51C4494.97 2557.71 4547.88 2488.54 4618.49 2466.42C4613.23 2424.88 4585.6 2390.54 4569.95 2352.87C4556.76 2321.09 4552.45 2285.32 4543.65 2251.46C4534.86 2217.61 4519.75 2183.3 4493.18 2167.21C4480.57 2159.57 4463.57 2152.92 4462.4 2136.16C4462.31 2130.77 4463.27 2125.44 4465.2 2120.57C4474.66 2092.28 4489.35 2066.88 4508.18 2046.24C4510.61 2044.02 4512.54 2041.14 4513.83 2037.84C4514.53 2034.58 4514.67 2031.18 4514.25 2027.84C4512.92 2000.87 4525.07 1975.64 4538.64 1953.95C4552.2 1932.26 4567.87 1911.62 4575.51 1886.17C4588.66 1842.42 4575.61 1794.33 4562.62 1750.52C4557.36 1732.81 4551.84 1714.55 4541.05 1700.83C4524.12 1679.32 4497.77 1673.12 4473.13 1669.91C4393.48 1659.54 4300.01 1634.73 4236.71 1693.11Z" fill="#2F2E41"/>
<g opacity="0.1">
<path d="M4228.42 1706.19C4231.1 1705.54 4233.59 1704.05 4235.61 1701.88C4237.64 1699.7 4239.15 1696.92 4239.96 1693.82C4240.17 1692.6 4240.23 1691.36 4240.15 1690.12C4239 1691.11 4237.84 1692.07 4236.72 1693.11C4233.06 1696.55 4230.2 1701.06 4228.42 1706.19Z" fill="black"/>
</g>
<path d="M4362.58 1007.39C4363.53 1029.01 4358.04 1052.14 4344.05 1066C4339.56 1070.45 4334.36 1073.82 4330.04 1078.51C4326.2 1083.19 4323.27 1088.8 4321.45 1094.97C4319.62 1101.13 4318.95 1107.69 4319.48 1114.2C4320.01 1120.7 4321.72 1126.99 4324.5 1132.62C4327.28 1138.26 4331.06 1143.11 4335.58 1146.84C4350.1 1157.36 4368.56 1154.52 4385.33 1151.07C4407.68 1147.36 4429.59 1140.56 4450.62 1130.83C4471.77 1120.96 4489.78 1103.44 4502.09 1080.75C4483.84 1068.66 4473.9 1043.26 4472.79 1018.47C4471.68 993.65 4477.41 965.481 4464.18 946.225C4451.43 927.68 4427.45 927.816 4408.03 934.181C4398.28 937.377 4388.84 941.795 4379.08 944.922C4374.13 946.506 4357.79 946.548 4354.56 950.876C4348.68 958.746 4362.03 994.887 4362.58 1007.39Z" fill="#FBBEBE"/>
<path opacity="0.1" d="M4362.58 1007.39C4363.53 1029.01 4358.04 1052.14 4344.05 1066C4339.56 1070.45 4334.36 1073.82 4330.04 1078.51C4326.2 1083.19 4323.27 1088.8 4321.45 1094.97C4319.62 1101.13 4318.95 1107.69 4319.48 1114.2C4320.01 1120.7 4321.72 1126.99 4324.5 1132.62C4327.28 1138.26 4331.06 1143.11 4335.58 1146.84C4350.1 1157.36 4368.56 1154.52 4385.33 1151.07C4407.68 1147.36 4429.59 1140.56 4450.62 1130.83C4471.77 1120.96 4489.78 1103.44 4502.09 1080.75C4483.84 1068.66 4473.9 1043.26 4472.79 1018.47C4471.68 993.65 4477.41 965.481 4464.18 946.225C4451.43 927.68 4427.45 927.816 4408.03 934.181C4398.28 937.377 4388.84 941.795 4379.08 944.922C4374.13 946.506 4357.79 946.548 4354.56 950.876C4348.68 958.746 4362.03 994.887 4362.58 1007.39Z" fill="black"/>
<path d="M4418.57 1006.06C4478.28 1006.06 4526.68 948.554 4526.68 877.619C4526.68 806.684 4478.28 749.18 4418.57 749.18C4358.86 749.18 4310.46 806.684 4310.46 877.619C4310.46 948.554 4358.86 1006.06 4418.57 1006.06Z" fill="#FBBEBE"/>
<path d="M4077.19 1863.03C4075.25 1873.18 4071.8 1882.83 4067.01 1891.54C4054.41 1918.15 4049.85 1949.09 4054.11 1979.2C4056.39 1994.13 4061.73 2008.16 4069.65 2020.07C4077.58 2031.97 4087.84 2041.37 4099.55 2047.44C4109.67 2052.18 4122.21 2053.43 4130.55 2045.14C4116.11 2022.82 4115.34 1992.34 4116.21 1964.21C4115.96 1958.95 4117.01 1953.73 4119.24 1949.18C4119.83 1948.1 4120.61 1947.17 4121.51 1946.46C4122.42 1945.75 4123.44 1945.26 4124.51 1945.04C4125.58 1944.81 4126.68 1944.85 4127.73 1945.15C4128.79 1945.45 4129.79 1946 4130.66 1946.77C4130.29 1964.49 4133.17 1982.09 4139.1 1998.35C4141.39 2004.6 4145.3 2011.51 4151.03 2011.33C4159.27 2011.08 4161.49 1997.83 4161.18 1988.06C4159.9 1948.22 4158.26 1906.73 4142.1 1871.8C4136.18 1859.01 4128.29 1847 4126.04 1832.66C4125.94 1827.68 4124.49 1822.88 4121.91 1818.96C4120.13 1817.3 4118.05 1816.14 4115.83 1815.59C4106.52 1812.47 4084.49 1802.74 4076.81 1813.1C4068.58 1824.2 4078.68 1849.75 4077.19 1863.03Z" fill="#FBBEBE"/>
<path d="M4237.75 1180.61C4225.35 1178.95 4215.56 1192.43 4208.77 1204.87C4183.46 1251.23 4165.25 1302.53 4154.96 1356.42C4149.73 1383.93 4146.44 1412.5 4135.45 1437.49C4132.8 1442.68 4130.67 1448.22 4129.09 1453.99C4128.15 1462.8 4127.82 1471.69 4128.1 1480.57C4126.96 1496.62 4118.98 1510.87 4116.3 1526.66C4114.7 1536.07 4115.02 1545.82 4113.6 1555.27C4111.11 1571.82 4103.46 1586.54 4098.56 1602.31C4089.94 1630.08 4090.01 1660.57 4083.67 1689.2C4082.89 1693.92 4081.18 1698.35 4078.66 1702.11C4074.36 1707.73 4067.48 1709.1 4061.86 1712.69C4057.43 1715.91 4053.63 1720.22 4050.72 1725.33C4047.81 1730.43 4045.85 1736.22 4044.98 1742.3C4043.3 1754.46 4043.1 1766.84 4044.4 1779.06L4049.37 1855.04C4054.49 1852.48 4057.84 1845.6 4062.11 1841.38C4069.93 1833.66 4081.4 1835.39 4091.41 1837.54L4105.98 1840.68C4120.88 1843.89 4137.09 1847.98 4146.65 1861.94C4154.25 1847.82 4149.9 1827.02 4161.58 1817.63C4165.38 1814.57 4170.08 1813.54 4174.09 1810.89C4177.86 1807.99 4180.98 1804.05 4183.2 1799.41C4185.41 1794.77 4186.65 1789.56 4186.81 1784.23C4187.04 1773.57 4185.8 1762.94 4183.15 1752.76C4201.87 1743.37 4213.47 1720.86 4220.8 1698.34C4228.85 1671.09 4234.68 1642.98 4238.21 1614.41C4255.11 1501.5 4270.57 1387.79 4272.1 1273.13C4273.17 1253.95 4271.39 1234.69 4266.84 1216.25C4261.51 1198.14 4253.79 1182.75 4237.75 1180.61Z" fill="#D0CDE1"/>
<path d="M4510.3 1057.64C4492.46 1079.88 4469.65 1095.61 4444.55 1103.01C4419.58 1110.31 4394.09 1114.77 4368.41 1116.34C4360.51 1117.91 4352.41 1117.08 4344.86 1113.92C4337.6 1110.01 4332.08 1099.8 4335.04 1091.01C4336.47 1088.29 4337.43 1085.26 4337.88 1082.1C4337.75 1074.27 4328.06 1073.62 4321.77 1075.94C4280.15 1091.23 4240.24 1121.51 4221.03 1167.96C4210.18 1194.2 4206.6 1223.71 4203.16 1252.66C4194.12 1328.8 4185.09 1406.59 4197.22 1482.12C4203.69 1522.4 4216.13 1561.66 4216.9 1602.65C4217.34 1625.62 4214.07 1648.5 4214.23 1671.48C4213.65 1679.53 4215.46 1687.56 4219.35 1694.19C4222.34 1698.32 4226.86 1700.92 4228.95 1705.78C4232.44 1713.9 4227.77 1725.04 4232.37 1732.34C4238.03 1741.33 4249.85 1734.88 4257.65 1728.54C4296.88 1696.89 4344.26 1682.72 4391.43 1688.53C4448.09 1695.75 4504.4 1731.63 4559.35 1713.7C4556.52 1708.8 4554.08 1703.59 4552.05 1698.16C4524.65 1591.18 4526.51 1471.61 4567.52 1370.96C4581.53 1336.58 4600.12 1303.81 4605.49 1266.15C4607.65 1248.53 4607.82 1230.65 4605.99 1212.98C4603.11 1178.79 4596.25 1144.31 4580.61 1115.4C4564.97 1086.5 4539.09 1061.03 4510.3 1057.64Z" fill="#D0CDE1"/>
<path d="M4248.75 1896.08C4244.35 1910.05 4242.24 1924.89 4242.53 1939.8C4242.12 1954.06 4242.72 1968.34 4244.32 1982.49C4245.24 1994.57 4248.86 2006.15 4254.82 2016.01C4257.87 2020.87 4262.06 2024.54 4266.86 2026.57C4271.67 2028.59 4276.87 2028.89 4281.81 2027.41C4285.7 2025.49 4289.18 2022.56 4292 2018.84C4294.82 2015.12 4296.9 2010.7 4298.09 2005.9C4300.42 1996.31 4302.13 1986.52 4303.2 1976.61C4307.94 1947.46 4320.83 1920.1 4321.05 1890.41C4321.23 1886.88 4320.76 1883.36 4319.68 1880.07C4314.99 1867.87 4292.03 1854.17 4280.81 1856.23C4266.77 1858.8 4253.85 1881.99 4248.75 1896.08Z" fill="#FBBEBE"/>
<path opacity="0.1" d="M4560.74 1166.08C4558.6 1191.62 4579.39 1210.86 4587.61 1234.6C4590.98 1245.67 4592.89 1257.3 4593.29 1269.07C4599.06 1350.72 4594.58 1432.85 4590.09 1514.62C4589.27 1541.84 4586.43 1568.93 4581.6 1595.55C4569.99 1651.43 4541.45 1699.87 4513.47 1746.85C4503.86 1765.69 4489.15 1780.1 4471.76 1787.73L4375.76 1842.97C4363.74 1849.28 4352.31 1857.09 4341.67 1866.26C4329.32 1877.77 4319.61 1892.78 4313.44 1909.92C4294.82 1898.62 4275.48 1888.47 4256.86 1877.16C4252.5 1874.52 4247.63 1871.06 4246.87 1865.32C4245.86 1857.61 4252.65 1852.16 4257.32 1846.67C4266.05 1836.41 4268.74 1821.19 4273.47 1807.72C4288.92 1763.71 4327.77 1735.53 4341.79 1690.85C4347.18 1673.67 4348.82 1654.27 4358.37 1639.88C4363.84 1632.66 4369.98 1626.22 4376.69 1620.67C4391.49 1605.75 4405.08 1589.22 4417.29 1571.29C4422.77 1564.53 4427.26 1556.72 4430.57 1548.19C4434.76 1535.51 4433.51 1521.37 4433.73 1507.75C4434.44 1463.14 4451.41 1421.55 4461.81 1378.68C4471.59 1338.31 4475.68 1295.97 4488.52 1256.82C4501.35 1217.68 4526.51 1176.6 4560.74 1166.08Z" fill="black"/>
<path d="M4573.22 1166.08C4571.08 1191.62 4591.87 1210.86 4600.09 1234.6C4603.45 1245.67 4605.37 1257.3 4605.76 1269.07C4611.54 1350.72 4607.05 1432.85 4602.57 1514.62C4601.75 1541.84 4598.91 1568.93 4594.07 1595.55C4582.47 1651.43 4553.92 1699.87 4525.95 1746.85C4516.33 1765.69 4501.63 1780.1 4484.23 1787.73L4388.24 1842.97C4376.21 1849.28 4364.78 1857.09 4354.14 1866.26C4341.79 1877.77 4332.09 1892.78 4325.92 1909.92C4307.3 1898.62 4287.96 1888.47 4269.34 1877.16C4264.98 1874.52 4260.1 1871.06 4259.35 1865.32C4258.34 1857.61 4265.12 1852.16 4269.79 1846.67C4278.53 1836.41 4281.22 1821.19 4285.95 1807.72C4301.4 1763.71 4340.25 1735.53 4354.27 1690.85C4359.65 1673.67 4361.3 1654.27 4370.85 1639.88C4376.31 1632.66 4382.46 1626.22 4389.16 1620.67C4403.96 1605.75 4417.56 1589.22 4429.77 1571.29C4435.25 1564.53 4439.74 1556.72 4443.05 1548.19C4447.24 1535.51 4445.98 1521.37 4446.2 1507.75C4446.92 1463.14 4463.89 1421.55 4474.28 1378.68C4484.07 1338.31 4488.15 1295.97 4500.99 1256.82C4513.83 1217.68 4538.98 1176.6 4573.22 1166.08Z" fill="#D0CDE1"/>
<path d="M4472.19 679.063C4438.88 674.226 4405.15 682.521 4376.2 702.673C4380.46 702.863 4384.75 703.209 4389.06 703.828C4421.05 708.417 4451.03 724.826 4474.75 750.739C4498.47 776.652 4514.74 810.76 4521.27 848.25C4527.8 885.741 4524.25 924.72 4511.13 959.687C4498.01 994.654 4475.98 1023.84 4448.15 1043.14C4487.8 1044.86 4526.49 1028.3 4556.11 996.928C4585.74 965.557 4604.01 921.798 4607.11 874.796C4610.22 827.793 4597.91 781.184 4572.77 744.709C4547.62 708.233 4511.59 684.713 4472.19 679.063V679.063Z" fill="#2F2E41"/>
<path d="M4519.51 780.674C4523.25 790.726 4525.28 801.554 4525.49 812.539C4525.7 823.525 4524.08 834.451 4520.73 844.692C4520 842.045 4519.16 839.443 4518.21 836.898C4499.19 786.628 4440.61 765.82 4387.36 790.422C4355.99 804.915 4333.49 831.938 4324.17 861.972C4310.61 813.377 4338.15 757.542 4388.67 734.198C4441.91 709.596 4500.5 730.404 4519.51 780.674Z" fill="#2F2E41"/>
<g opacity="0.1">
<path d="M4519.81 840.699C4517.35 805.416 4506.33 771.74 4488.08 743.752C4469.83 715.763 4445.14 694.665 4417 683.016C4402.68 687.207 4388.93 693.826 4376.2 702.669C4380.46 702.859 4384.75 703.205 4389.06 703.824C4419.95 708.261 4448.98 723.717 4472.32 748.152C4495.66 772.588 4512.22 804.855 4519.81 840.699V840.699Z" fill="black"/>
<path d="M4544.76 707.324C4542.3 672.041 4531.27 638.365 4513.03 610.377C4494.78 582.388 4470.09 561.29 4441.95 549.641C4427.62 553.832 4413.88 560.451 4401.14 569.294C4405.41 569.484 4409.69 569.83 4414.01 570.449C4444.89 574.886 4473.92 590.342 4497.26 614.777C4520.61 639.213 4537.16 671.48 4544.76 707.324V707.324Z" fill="black"/>
<path d="M4545.39 508.101C4543.91 486.808 4537.26 466.484 4526.24 449.592C4515.23 432.701 4500.33 419.968 4483.35 412.938C4474.7 415.467 4466.41 419.461 4458.72 424.798C4461.29 424.913 4463.88 425.122 4466.48 425.495C4485.12 428.173 4502.64 437.501 4516.73 452.248C4530.82 466.995 4540.81 486.469 4545.39 508.101V508.101Z" fill="black"/>
<path d="M4602.94 815.938C4605.93 859.77 4595.53 903.415 4573.64 938.878C4551.75 974.342 4519.84 999.251 4483.76 1009.04C4473.37 1022.44 4461.37 1033.93 4448.15 1043.14C4472 1044.17 4495.73 1038.6 4517.46 1026.86C4539.18 1015.12 4558.31 997.529 4573.33 975.487C4588.35 953.446 4598.84 927.555 4603.98 899.863C4609.12 872.171 4608.76 843.438 4602.94 815.938V815.938Z" fill="black"/>
</g>
<path d="M4124.39 1987.07L4104.49 1272.5" stroke="#6C63FF" stroke-width="2" stroke-miterlimit="10"/>
<path d="M4104.49 1373.61C4151.49 1373.61 4189.6 1328.34 4189.6 1272.5C4189.6 1216.66 4151.49 1171.4 4104.49 1171.4C4057.49 1171.4 4019.39 1216.66 4019.39 1272.5C4019.39 1328.34 4057.49 1373.61 4104.49 1373.61Z" fill="#00BF22"/>
<path d="M4116.76 1712.91C4116.76 1712.91 4095.96 1402.9 3847.88 1448.78Z" fill="#00BF22"/>
</g>
<defs>
<filter id="filter0_d_0_1" x="0" y="0" width="5082" height="4234" filterUnits="userSpaceOnUse" color-interpolation-filters="sRGB">
<feFlood flood-opacity="0" result="BackgroundImageFix"/>
<feColorMatrix in="SourceAlpha" type="matrix" values="0 0 0 0 0 0 0 0 0 0 0 0 0 0 0 0 0 0 127 0" result="hardAlpha"/>
<feOffset dx="33" dy="29"/>
<feGaussianBlur stdDeviation="2.5"/>
<feColorMatrix type="matrix" values="0 0 0 0 0 0 0 0 0 0 0 0 0 0 0 0 0 0 0.25 0"/>
<feBlend mode="normal" in2="BackgroundImageFix" result="effect1_dropShadow_0_1"/>
<feBlend mode="normal" in="SourceGraphic" in2="effect1_dropShadow_0_1" result="shape"/>
</filter>
<linearGradient id="paint0_linear_0_1" x1="4493.11" y1="993.757" x2="4493.11" y2="915.43" gradientUnits="userSpaceOnUse">
<stop stop-color="#808080" stop-opacity="0.25"/>
<stop offset="0.53514" stop-color="#808080" stop-opacity="0.12"/>
<stop offset="1" stop-color="#808080" stop-opacity="0.1"/>
</linearGradient>
<clipPath id="clip0_0_1">
<rect width="5044" height="4200" fill="white"/>
</clipPath>
</defs>
</svg>
