<svg width="5689" height="4889" viewBox="0 0 5689 4889" fill="none" xmlns="http://www.w3.org/2000/svg">
<g filter="url(#filter0_d_0_1)">
<path d="M5233.38 4106.76C5233.38 4108.25 5232.56 4109.8 5230.78 4111.42C5229 4113.03 5226.31 4114.66 5222.71 4116.3C5215.5 4119.56 5204.76 4122.79 5190.62 4125.97C5162.36 4132.33 5120.65 4138.47 5066.92 4144.32C4959.46 4156.01 4803.96 4166.55 4611.78 4175.4C4227.45 4193.09 3696.48 4204.04 3109.99 4204.04C2523.49 4204.04 1992.53 4193.09 1608.19 4175.4C1416.02 4166.55 1260.51 4156.01 1153.05 4144.32C1099.32 4138.47 1057.62 4132.33 1029.35 4125.97C1015.22 4122.79 1004.47 4119.56 997.266 4116.3C993.662 4114.66 990.973 4113.03 989.193 4111.42C987.412 4109.8 986.594 4108.25 986.594 4106.76C986.594 4105.27 987.412 4103.71 989.193 4102.1C990.973 4100.48 993.662 4098.85 997.266 4097.22C1004.47 4093.95 1015.22 4090.72 1029.35 4087.54C1057.62 4081.18 1099.32 4075.04 1153.05 4069.19C1260.51 4057.5 1416.02 4046.96 1608.19 4038.12C1992.53 4020.42 2523.49 4009.48 3109.99 4009.48C3696.48 4009.48 4227.45 4020.42 4611.78 4038.12C4803.96 4046.96 4959.46 4057.5 5066.92 4069.19C5120.65 4075.04 5162.36 4081.18 5190.62 4087.54C5204.76 4090.72 5215.5 4093.95 5222.71 4097.22C5226.31 4098.85 5229 4100.48 5230.78 4102.1C5232.56 4103.71 5233.38 4105.27 5233.38 4106.76Z" fill="url(#paint0_linear_0_1)" stroke="black"/>
<path d="M1208.63 3454.23C1208.63 3454.23 1325.99 3174.56 1633.3 2901.74C1850.25 2709.1 1955.58 2211.96 1955.58 2211.96C1955.58 2211.96 1522.94 2276.24 1353 2634.1C1183.06 2991.95 1208.63 3454.23 1208.63 3454.23Z" fill="#66F684"/>
<path d="M1207.57 3461.52C1210.5 3461.25 1212.97 3458.49 1213.43 3454.85C1258.19 3152.26 1379.74 2924.63 1473.95 2786.81C1576.06 2637.7 1668.47 2559.23 1669.41 2558.51C1672.39 2555.92 1673.25 2550.77 1671.23 2546.94C1670.77 2546.02 1670.16 2545.23 1669.45 2544.62C1668.75 2544 1667.95 2543.57 1667.12 2543.35C1666.28 2543.14 1665.42 2543.13 1664.59 2543.34C1663.75 2543.56 1662.96 2543.98 1662.25 2544.59C1661.3 2545.31 1567.32 2624.97 1464.16 2775.87C1368.87 2915.05 1245.83 3145.36 1200.62 3451.59C1200.45 3452.66 1200.45 3453.76 1200.62 3454.83C1200.78 3455.91 1201.12 3456.92 1201.59 3457.83C1202.07 3458.73 1202.69 3459.5 1203.4 3460.09C1204.11 3460.68 1204.91 3461.08 1205.75 3461.26C1206.58 3461.4 1207.08 3461.56 1207.57 3461.52Z" fill="#307E40"/>
<path d="M1265.24 3442.9C1265.24 3442.9 1297.54 3342.06 1468.74 3350.84C1639.92 3359.42 1740.96 3472.53 2030.85 3225.83C2030.85 3225.83 1790.93 3003.31 1548.41 3074.64C1305.71 3145.77 1293.51 3269.07 1265.24 3442.9V3442.9Z" fill="#66F684"/>
<path d="M1264.88 3451.18C1266.99 3450.98 1269.04 3449.32 1270.2 3446.67C1270.93 3445.12 1338.28 3284.2 1458.91 3244.36C1669.71 3174.68 1819.78 3249.24 1821.31 3250.17C1822.92 3250.95 1824.7 3250.88 1826.28 3249.99C1827.85 3249.09 1829.09 3247.44 1829.73 3245.37C1830.33 3243.32 1830.3 3241.05 1829.64 3239.02C1828.98 3237 1827.74 3235.38 1826.18 3234.5C1824.66 3233.79 1670.7 3157.05 1455.72 3228.17C1329.45 3269.8 1261.68 3432.02 1258.78 3438.84C1257.04 3443.02 1258.3 3447.97 1261.54 3450.22C1262.41 3450.98 1263.73 3451.28 1264.88 3451.18V3451.18Z" fill="#307E40"/>
<path d="M1189.7 3426.17C1189.7 3426.17 1198.63 3317.76 1044.98 3220.06C891.335 3122.35 760.728 3159.52 597.359 2764.44C597.359 2764.44 890.539 2716.57 1077.4 2928.54C1264.24 3140.09 1229.15 3255.98 1189.7 3426.17Z" fill="#66F684"/>
<path d="M1191 3434.93C1194.27 3434.63 1197.02 3430.99 1196.95 3426.77C1197.01 3418.95 1197.32 3234.8 1101.95 3120.54C939.336 2925.79 775.644 2898.56 774.152 2898.27C772.466 2898.03 770.773 2898.64 769.437 2899.99C768.101 2901.34 767.229 2903.31 767.009 2905.48C766.82 2907.66 767.299 2909.84 768.346 2911.56C769.392 2913.28 770.921 2914.41 772.604 2914.69C774.26 2914.96 933.817 2941.73 1093.28 3132.75C1184.6 3242.1 1184.21 3424.78 1184.15 3426.68C1184.13 3427.78 1184.28 3428.88 1184.59 3429.9C1184.9 3430.93 1185.37 3431.86 1185.96 3432.65C1186.56 3433.44 1187.27 3434.08 1188.05 3434.51C1188.83 3434.95 1189.68 3435.18 1190.53 3435.19C1190.52 3434.98 1190.68 3434.96 1191 3434.93Z" fill="#307E40"/>
<path d="M1262.93 4172.27C1486.04 4172.27 1628.03 4126.52 1605.26 3923.89C1590.8 3795.24 1513.01 3669.38 1458.1 3594.42C1451.04 3584.8 1443.84 3575.34 1436.52 3566.05C1416.13 3540.18 1402.43 3525.16 1402.43 3525.16L1401.78 3520.43L1397.9 3492.06L1393.37 3459.38L1383.12 3384.55L1379.56 3358.41L1262.93 3351.87L1141.23 3358.41L1138.43 3384.55L1134.11 3425.72L1126.99 3492.2L1123.98 3520.57L1123.54 3525.3C1123.54 3525.3 1109.84 3540.18 1089.45 3566.18C1082.16 3575.51 1074.96 3584.97 1067.87 3594.56C1012.96 3669.38 935.171 3795.38 920.714 3924.03C897.838 4126.52 1039.82 4172.27 1262.93 4172.27V4172.27Z" fill="#307E40"/>
<path d="M1095.89 3405.84H1433.24C1451.31 3405.84 1466.1 3386.77 1466.1 3363.49V3337C1466.1 3313.71 1451.31 3294.64 1433.24 3294.64H1095.89C1077.82 3294.64 1063.03 3313.71 1063.03 3337V3363.49C1063.03 3386.77 1077.82 3405.84 1095.89 3405.84Z" fill="#307E40"/>
<path d="M1042.99 2364.37C1042.99 2409.4 1013.26 2445.86 976.538 2445.86C939.819 2445.86 910.242 2409.22 910.242 2364.37C910.242 2319.34 939.97 2282.89 976.69 2282.89C1013.41 2282.89 1042.99 2319.34 1042.99 2364.37Z" stroke="#E1E4E5" stroke-width="5.225" stroke-miterlimit="10"/>
<path d="M1228.12 2177.72C1132.22 2285.75 967.25 2244.78 967.25 2244.78C967.25 2244.78 957.876 2028.67 1053.86 1920.72C1149.76 1812.7 1314.65 1853.59 1314.65 1853.59C1314.65 1853.59 1324.03 2069.69 1228.12 2177.72Z" fill="url(#paint1_linear_0_1)"/>
<path d="M1815.29 1216.29C1810.36 1239.99 1821.27 1264.35 1839.66 1270.7C1858.05 1277.06 1876.95 1262.99 1881.88 1239.29C1886.8 1215.58 1875.89 1191.22 1857.5 1184.87C1839.11 1178.52 1820.21 1192.58 1815.29 1216.29Z" fill="#E1E4E5"/>
<path d="M1940.48 1778.68C1935.55 1802.39 1946.47 1826.75 1964.86 1833.1C1983.24 1839.45 2002.14 1825.39 2007.07 1801.68C2012 1777.98 2001.09 1753.62 1982.7 1747.27C1964.31 1740.91 1945.41 1754.98 1940.48 1778.68Z" fill="#E1E4E5"/>
<path d="M2625.69 1362.51C2620.77 1386.22 2631.68 1410.58 2650.07 1416.93C2668.45 1423.28 2687.35 1409.22 2692.28 1385.51C2697.21 1361.81 2686.3 1337.44 2667.91 1331.09C2649.52 1324.74 2630.62 1338.81 2625.69 1362.51Z" fill="#E1E4E5"/>
<path d="M3867.88 2341.49C3864.65 2357.07 3871.82 2373.08 3883.9 2377.25C3895.98 2381.42 3908.4 2372.18 3911.64 2356.61C3914.88 2341.03 3907.71 2325.02 3895.62 2320.85C3883.54 2316.68 3871.12 2325.92 3867.88 2341.49Z" fill="#E1E4E5"/>
<path d="M3877.44 3049.66C3872.52 3073.36 3883.43 3097.73 3901.82 3104.08C3920.2 3110.43 3939.1 3096.36 3944.03 3072.66C3948.96 3048.96 3938.05 3024.59 3919.66 3018.24C3901.27 3011.89 3882.37 3025.96 3877.44 3049.66Z" fill="#E1E4E5"/>
<path d="M4149.26 2788.91C4144.33 2812.61 4155.24 2836.98 4173.63 2843.33C4192.02 2849.68 4210.92 2835.61 4215.84 2811.91C4220.77 2788.21 4209.86 2763.84 4191.47 2757.49C4173.08 2751.14 4154.18 2765.21 4149.26 2788.91Z" fill="#E1E4E5"/>
<path d="M3666.25 1846.68V2005.07L3555.33 2175.49H4021.26C4162.1 2175.49 4276.34 2028.23 4276.34 1846.68C4276.34 1665.13 4162.1 1517.88 4021.26 1517.88H3921.33C3780.4 1517.88 3666.25 1665.13 3666.25 1846.68V1846.68Z" fill="#E1E4E5"/>
<path d="M3862.81 1846.12C3862.81 1861.62 3858.03 1876.49 3849.52 1887.45C3841.02 1898.41 3829.49 1904.57 3817.46 1904.58C3805.44 1904.57 3793.91 1898.41 3785.41 1887.45C3776.9 1876.48 3772.12 1861.62 3772.12 1846.12C3772.12 1830.62 3776.9 1815.76 3785.41 1804.8C3793.91 1793.83 3805.44 1787.67 3817.46 1787.66C3829.49 1787.67 3841.02 1793.83 3849.52 1804.79C3858.03 1815.75 3862.81 1830.62 3862.81 1846.12V1846.12ZM4016.9 1846.11C4016.9 1861.61 4012.12 1876.48 4003.62 1887.44C3995.12 1898.4 3983.59 1904.56 3971.56 1904.57C3959.54 1904.56 3948 1898.4 3939.5 1887.44C3931 1876.48 3926.22 1861.61 3926.21 1846.11C3926.22 1830.61 3931 1815.75 3939.5 1804.78C3948 1793.82 3959.54 1787.66 3971.56 1787.66C3983.59 1787.66 3995.11 1793.83 4003.62 1804.79C4012.12 1815.75 4016.9 1830.61 4016.9 1846.11V1846.11ZM4171 1846.11C4170.99 1861.61 4166.21 1876.48 4157.71 1887.44C4149.21 1898.4 4137.68 1904.56 4125.65 1904.57C4113.62 1904.56 4102.09 1898.4 4093.59 1887.44C4085.09 1876.48 4080.31 1861.61 4080.3 1846.11C4080.31 1830.61 4085.09 1815.75 4093.59 1804.79C4102.1 1793.83 4113.63 1787.66 4125.65 1787.66C4137.68 1787.66 4149.21 1793.82 4157.71 1804.78C4166.21 1815.75 4170.99 1830.61 4171 1846.11Z" fill="white"/>
<path d="M4049.69 3592.33L3960.74 3637.15L3966.38 3514.27L4055.3 3469.48L4049.69 3592.33V3592.33Z" stroke="#E1E4E5" stroke-width="4.267" stroke-linecap="round" stroke-linejoin="round"/>
<path fill-rule="evenodd" clip-rule="evenodd" d="M2092.29 1356.51V1044.45C2092.29 1012.13 2112.56 985.945 2137.58 985.945H2409.34C2434.37 985.945 2454.64 1012.13 2454.64 1044.45V1356.51C2454.64 1366.94 2452.48 1377.17 2448.39 1386.17C2444.29 1395.16 2438.4 1402.57 2431.33 1407.65L2295.46 1505.15C2288.73 1509.98 2281.16 1512.52 2273.46 1512.52C2265.75 1512.52 2258.18 1509.98 2251.45 1505.15L2115.57 1407.65C2108.51 1402.56 2102.63 1395.14 2098.54 1386.15C2094.45 1377.16 2092.29 1366.93 2092.29 1356.51V1356.51Z" fill="#E1E4E5"/>
<path d="M2198.15 1332.34H2348.79M2198.15 1243.99H2348.79H2198.15ZM2198.15 1153.02H2348.79H2198.15Z" stroke="white" stroke-width="3.682" stroke-linecap="round" stroke-linejoin="round"/>
<path d="M4262 2280.62L4146.91 2428.98C4142.72 2434.39 4142.72 2443.15 4146.91 2448.55C4151.1 2453.95 4157.9 2453.95 4162.09 2448.55L4277.18 2300.18C4281.38 2294.78 4281.38 2286.02 4277.18 2280.62C4272.99 2275.21 4266.2 2275.21 4262 2280.62Z" fill="#E1E4E5"/>
<path d="M4250.74 2386.84L4217.55 2429.62C4213.36 2435.03 4213.36 2443.79 4217.55 2449.19C4221.74 2454.59 4228.54 2454.59 4232.73 2449.19L4265.92 2406.4C4270.11 2401 4270.11 2392.24 4265.92 2386.84C4261.73 2381.43 4254.93 2381.43 4250.74 2386.84Z" fill="#E1E4E5"/>
<path d="M4809.43 1834C4809.43 1834 4712.34 1800.41 4678.87 2087.33C4645.4 2374.24 4645.16 2531.4 4645.16 2531.4C4645.16 2531.4 4632.87 2593.79 4596.78 2571.94C4560.68 2550.1 4498.56 2471 4456.43 2508.13C4412.75 2546.68 4414.86 2622.93 4450.45 2721.05C4486.05 2819.17 4557.88 3037.65 4564.33 3057.5C4570.69 3076.89 4569.37 3110.16 4542.94 3100.32C4516.5 3090.49 4346.93 2966.16 4306.02 3073.36C4265.01 3180.6 4399.04 3432.86 4413.25 3460.76C4427.48 3488.67 4426.27 3503.81 4416.95 3516.26C4407.63 3528.7 4353.66 3479.98 4304.34 3447.11C4255.02 3414.24 4193.3 3387.4 4173.69 3451.82C4154.08 3516.23 4197.73 3729.97 4440.09 4003.33L4558.82 4120.52L4698.46 4049.2C4990.06 3873.13 5077.98 3683.31 5072.95 3614.43C5067.93 3545.56 5002.89 3549.3 4948.4 3563.25C4893.91 3577.21 4831.59 3604.73 4825.31 3589.43C4819.03 3574.13 4821.05 3559.2 4840.73 3537.44C4860.4 3515.68 5043.36 3321.22 5027.02 3203.48C5010.7 3085.85 4821.04 3144.75 4793.53 3144.64C4766.05 3144.66 4772 3112.28 4782.24 3095.89C4792.7 3079.18 4908.77 2894.86 4964.01 2813.27C5019.28 2731.81 5037.67 2659.2 5003.99 2606.58C4971.55 2555.78 4894.8 2609.74 4855.44 2617.84C4816.09 2625.94 4817.7 2561.51 4817.7 2561.51C4817.7 2561.51 4851.33 2410.41 4880.78 2122.77C4910.22 1835.12 4807.26 1833.38 4807.26 1833.38" fill="#66F684"/>
<path d="M4556.34 4080.21C4578.55 3869.05 4611.19 3577.67 4648.18 3255.99C4685.09 2934.44 4718.26 2643.27 4741.47 2432.26C4752.97 2326.98 4762.25 2241.68 4768.71 2182.43C4771.91 2153.13 4774.42 2130.31 4776.17 2114.49C4777.02 2106.95 4777.74 2101.09 4778.2 2096.81C4778.74 2092.88 4779.08 2090.77 4779.08 2090.77C4779.08 2090.77 4779.01 2092.79 4778.71 2096.88C4778.33 2101.14 4777.82 2107.05 4777.16 2114.64C4775.63 2130.51 4773.41 2153.36 4770.62 2182.78C4764.9 2241.89 4756.15 2327.38 4744.99 2432.92C4722.78 2644.08 4690.12 2935.33 4653.22 3256.99C4616.32 3578.65 4583.07 3869.86 4559.95 4080.83" fill="white"/>
<path d="M4539.91 2623.39C4540.24 2623.16 4542.58 2626.96 4546.8 2634.24C4551.01 2641.39 4556.79 2652 4563.79 2665.18C4577.81 2691.65 4596.46 2728.75 4616.43 2770.38C4635.88 2811.33 4653.55 2848.39 4667.15 2877.01C4673.26 2889.62 4678.38 2900.32 4682.65 2909.2C4686.36 2916.78 4688.23 2921.13 4687.89 2921.37C4687.55 2921.61 4685.12 2917.83 4680.93 2910.68C4676.82 2903.48 4671.03 2892.88 4664.1 2879.56C4650.24 2852.91 4631.99 2815.42 4612.13 2773.87L4560.85 2667.81C4554.74 2655.2 4549.53 2644.53 4545.26 2635.65C4541.53 2627.95 4539.66 2623.61 4539.91 2623.39ZM4701.71 2918.97C4700.92 2917.49 4758.62 2864.49 4830.65 2800.82C4902.66 2737.01 4961.76 2686.53 4962.55 2688.01C4963.34 2689.48 4905.61 2742.36 4833.61 2806.16C4761.51 2869.99 4702.5 2920.44 4701.71 2918.97ZM4627.75 3409.63C4627.65 3409.17 4631.35 3407.39 4637.98 3404.35C4645.71 3401.06 4655.23 3397.02 4666.41 3392.16C4690.41 3381.88 4723.6 3367.42 4759.72 3349.83C4795.87 3332.35 4828.19 3315.07 4851.58 3302.38C4862.46 3296.5 4871.67 3291.45 4879.23 3287.34C4885.77 3283.83 4889.48 3282.18 4889.65 3282.5C4889.84 3282.93 4886.37 3285.37 4880.1 3289.66C4871.18 3295.56 4862.16 3301.21 4853.04 3306.61C4823.04 3324.52 4792.53 3340.97 4761.57 3355.93C4730.61 3370.92 4699.23 3384.46 4667.51 3396.52C4655.31 3401.11 4645.38 3404.54 4638.57 3406.77C4631.69 3409.02 4627.85 3410.1 4627.75 3409.63V3409.63ZM4435.81 3183.73C4436.03 3183.4 4438.92 3186.15 4444.09 3191.47C4449.17 3196.83 4456.42 3204.68 4465.32 3214.46C4488.47 3240.07 4511.43 3265.95 4534.21 3292.09C4557.04 3318.2 4579.68 3344.57 4602.15 3371.19C4608.97 3379.26 4615.71 3387.46 4622.35 3395.77C4627.06 3401.63 4629.53 3405.14 4629.3 3405.47C4629.08 3405.8 4626.19 3403.06 4621.01 3397.73C4615.93 3392.38 4608.69 3384.52 4599.79 3374.74C4576.64 3349.14 4553.68 3323.26 4530.9 3297.11C4504.22 3266.52 4480.2 3238.51 4463.06 3217.99C4456.23 3209.91 4449.49 3201.72 4442.85 3193.4C4438.06 3187.57 4435.5 3184.09 4435.81 3183.73V3183.73ZM4327.82 3606.17C4328.04 3605.85 4331.79 3609.42 4338.33 3616.27C4345.56 3624 4354.76 3633.8 4365.63 3645.64C4388.55 3670.66 4419.98 3705.47 4454.48 3744.33C4488.98 3783.19 4520.06 3818.62 4542.37 3844.48C4552.87 3856.81 4561.72 3867.24 4568.65 3875.45C4574.73 3882.83 4578.06 3887.17 4577.83 3887.5C4577.61 3887.83 4573.86 3884.25 4567.32 3877.41C4560.09 3869.67 4550.89 3859.87 4540.02 3848.04C4510.21 3815.42 4480.59 3782.52 4451.17 3749.35C4421.7 3716.21 4392.4 3682.83 4363.28 3649.2C4352.78 3636.86 4343.93 3626.44 4337 3618.22C4330.82 3610.87 4327.59 3606.51 4327.82 3606.17ZM4573.28 3878.59C4573.18 3878.12 4577.8 3875.65 4586.13 3871.53C4595.46 3867.06 4607.43 3861.3 4621.78 3854.48C4651.87 3839.96 4693.47 3819.85 4738.83 3795.95C4777.6 3775.57 4816.11 3754.37 4854.34 3732.36C4865.95 3725.78 4877.54 3719.16 4889.11 3712.48C4897.35 3707.89 4901.97 3705.42 4902.16 3705.86C4902.34 3706.29 4897.96 3709.43 4889.98 3714.8C4882 3720.18 4870.31 3727.71 4855.8 3736.59C4817.96 3759.85 4779.6 3781.67 4740.77 3802.03C4701.94 3822.42 4662.66 3841.36 4622.97 3858.8C4610.95 3864.09 4598.87 3869.14 4586.73 3873.94C4578.23 3877.26 4573.44 3878.9 4573.28 3878.59V3878.59Z" fill="white"/>
<path d="M4512.85 2085.98H4513.68C4518.57 2171.67 4570.16 2172.99 4570.16 2172.99C4570.16 2172.99 4513.27 2174.37 4513.27 2273.39C4513.27 2174.37 4456.38 2172.99 4456.38 2172.99C4456.38 2172.99 4507.95 2171.67 4512.85 2085.98V2085.98Z" fill="#E1E4E5"/>
<path d="M2899.48 2081.79L2803.86 2532.38L2837.98 2481.77C2825.36 2490.43 2810.74 2497.07 2794.54 2501.78C2778.34 2506.5 2760.72 2509.19 2742.29 2510.45C2723.85 2511.69 2704.67 2511.51 2684.96 2510.45C2665.33 2509.39 2645.26 2507.46 2624.88 2505.25H2624.8C2610.36 2503.67 2596.03 2509.54 2584.94 2521.57C2573.86 2533.6 2566.93 2550.81 2565.69 2569.42C2563.23 2606.38 2583.6 2639.09 2611.52 2644.96C2632.57 2649.29 2653.92 2653.33 2675.86 2656.6C2697.8 2659.87 2720.27 2662.27 2743.56 2662.95C2766.85 2663.63 2790.96 2662.47 2815.89 2657.85C2840.74 2653.23 2866.56 2644.86 2891.8 2630.81C2899.47 2626.55 2906.36 2620.26 2912.02 2612.33C2917.68 2604.41 2921.98 2595.03 2924.64 2584.82L2925.83 2580.11L3040.55 2136.93C3053.47 2087.09 3032.57 2033.3 2993.9 2016.66C2955.24 2000.01 2913.52 2026.96 2900.6 2076.79C2900.23 2078.43 2899.78 2080.25 2899.48 2081.79V2081.79Z" fill="#F8AE9D"/>
<path d="M3395.22 2630.37C3395.22 2630.37 3398.91 2697.1 3361.83 2714.74L2976.11 2733.88C2976.11 2733.88 2950.2 2701.46 2955.3 2623.74C2955.3 2623.55 3119.22 2407.98 3395.22 2630.37Z" fill="#66F684"/>
<path d="M3111.99 2700.77C3113.26 2713.46 3117.59 2723.18 3121.69 2722.41C3125.72 2721.74 3128.04 2710.86 3126.77 2698.26C3125.5 2685.56 3121.17 2675.84 3117.06 2676.61C3112.96 2677.28 3110.72 2688.16 3111.99 2700.77Z" fill="#B55E63"/>
<path d="M2948 2542.45V2543.13C2948.15 2544.99 2948.23 2546.94 2948.3 2549C2948.68 2556.82 2948.99 2566.2 2949.22 2576.86C2949.44 2585.47 2949.52 2594.85 2949.59 2604.93C2949.59 2612.45 2949.67 2620.28 2949.67 2628.39C3059.35 2567.28 3283.65 2610.69 3373.94 2631.91C3373.03 2626.05 3372.2 2620.28 3371.36 2614.61C3370.76 2610.4 3370.23 2606.29 3369.62 2602.19C3363.64 2557.5 3360.45 2517.32 3359.4 2481.44L3359.17 2471.85C3358.26 2418.56 3362.73 2342.79 3371.82 2264.76C3372.43 2259.39 3373.11 2254.01 3373.71 2248.73L3375.07 2238.17C3378.38 2212.26 3382.24 2186.47 3386.67 2160.83C3388.18 2152.23 3389.47 2143.53 3390.53 2134.92C3391.74 2125.34 3392.65 2115.76 3393.33 2106.27C3395 2082.22 3394.85 2058.75 3392.42 2036.95C3388.1 1998.13 3376.36 1964.69 3354.63 1943.18C3342.35 1931.06 3326.83 1922.65 3307.58 1919.32C3301.29 1918.25 3295.09 1917.17 3289.1 1916.29C3270.24 1913.36 3252.89 1911.31 3238.8 1909.84C3234.18 1909.35 3229.87 1908.96 3226 1908.57C3216.16 1907.69 3208.88 1907.1 3205.32 1906.91C3204.46 1906.86 3203.61 1906.8 3202.75 1906.71L3034.35 1966.85L3018.3 1972.52C3011.48 1975.25 3005.04 1977.89 2999.06 1980.44C2984.21 1986.79 2971.56 1992.86 2960.65 1998.81C2947.17 2006.24 2936.42 2013.48 2927.93 2021.11C2890.81 2054.25 2896.11 2092.48 2896.26 2167.78V2172.96C2896.26 2178.63 2896.19 2184.29 2896.04 2189.96C2895.89 2197.1 2895.59 2204.14 2895.13 2211.18C2894.37 2225.36 2900.9 2239.2 2899.54 2253.08C2917.19 2350.8 2921.61 2383.39 2927.93 2444.5C2933.41 2497.47 2932.33 2527.59 2943.84 2538.54C2946.41 2541.08 2948 2542.45 2948 2542.45Z" fill="#66F684"/>
<path d="M3199.1 1917.36C3199.1 1917.36 3184.24 1989.81 3128.12 2009.92C3056.76 2035.41 3046.01 2004.53 3046.01 2004.53C3047.78 1991.42 3048.43 1978.09 3047.95 1964.79C3047.77 1959.49 3047.45 1954.19 3046.98 1948.92C3045.71 1934.1 3043.32 1917.94 3039.96 1899.46C3039.22 1895.13 3038.32 1890.61 3037.43 1885.99L3037.35 1885.41C3086.16 1861.75 3124.46 1826.24 3147.9 1773.71L3154.84 1766.68L3159.54 1761.88L3160.88 1765.53L3161.11 1777.75C3162.07 1835.19 3169.61 1869.16 3199.1 1917.36V1917.36Z" fill="#F8AE9D"/>
<path d="M2862.69 3715.47C2864.11 3715.47 2865.53 3715.18 2866.94 3714.51L3367.79 3481.76C3370.85 3480.2 3373.33 3477.17 3374.69 3473.3C3376.04 3469.43 3376.18 3465.03 3375.06 3461.04C3373.94 3457.04 3371.66 3453.77 3368.7 3451.9C3365.74 3450.04 3362.33 3449.74 3359.2 3451.06L2858.36 3683.81C2855.55 3685.12 2853.2 3687.66 2851.7 3690.98C2850.21 3694.31 2849.67 3698.2 2850.19 3701.99C2850.71 3705.77 2852.25 3709.2 2854.53 3711.66C2856.82 3714.13 2859.71 3715.48 2862.69 3715.47V3715.47Z" fill="#66F684"/>
<path d="M3384.28 3715.47C3387.26 3715.46 3390.13 3714.1 3392.41 3711.63C3394.68 3709.15 3396.21 3705.73 3396.71 3701.95C3397.22 3698.17 3396.68 3694.28 3395.19 3690.97C3393.69 3687.65 3391.34 3685.12 3388.54 3683.82L2881.73 3447.21C2878.6 3445.87 2875.18 3446.16 2872.21 3448.01C2869.25 3449.87 2866.95 3453.14 2865.83 3457.14C2864.7 3461.13 2864.82 3465.54 2866.18 3469.42C2867.53 3473.3 2870 3476.34 2873.07 3477.91L3379.88 3714.5C3381.45 3715.18 3382.87 3715.47 3384.28 3715.47V3715.47Z" fill="#66F684"/>
<path d="M2818.13 4131.41C2823.36 4131.4 2828.41 4128.94 2832.35 4124.5C2836.28 4120.07 2838.84 4113.94 2839.55 4107.26L2930.02 3236.6H3308.52L3397.57 4107.26C3397.93 4110.89 3398.85 4114.39 3400.27 4117.57C3401.69 4120.74 3403.58 4123.52 3405.84 4125.74C3408.09 4127.97 3410.66 4129.6 3413.41 4130.54C3416.15 4131.48 3419.01 4131.72 3421.83 4131.23C3424.64 4130.75 3427.36 4129.57 3429.82 4127.74C3432.28 4125.91 3434.43 4123.47 3436.16 4120.57C3437.89 4117.66 3439.15 4114.34 3439.88 4110.81C3440.61 4107.27 3440.79 4103.58 3440.41 4099.95L3348.9 3205.04C3348.22 3198.34 3345.67 3192.18 3341.73 3187.72C3337.79 3183.26 3332.72 3180.8 3327.48 3180.79H2911.06C2905.82 3180.78 2900.76 3183.22 2896.82 3187.67C2892.88 3192.11 2890.33 3198.25 2889.64 3204.94L2796.63 4099.86C2795.88 4107.19 2797.41 4114.61 2800.9 4120.49C2804.38 4126.37 2809.53 4130.23 2815.22 4131.23C2816.19 4131.41 2817.16 4131.41 2818.13 4131.41V4131.41Z" fill="#66F684"/>
<path d="M3031.67 3208.69H3302.1C3387.78 3208.69 3479.52 3148.27 3492.66 3039.06C3509.24 2901.15 3514.94 2761.44 3509.67 2622.05C3504.15 2475.32 3449.81 2338.89 3360.32 2247.96C3360.32 2247.96 3306.28 2551.43 3374.2 2970.36C3348.38 3129.6 3031.67 3208.69 3031.67 3208.69Z" fill="#66F684"/>
<path d="M2405.96 3758.38H2526.72C2526.72 3758.38 2554.72 3585.57 2564.05 3488.58C2573.45 3391.69 2578.3 3161.93 2578.3 3161.93C2578.3 3161.93 2674.59 3202.24 2876.12 3187.04C3322.63 3153.46 3153.34 2730.59 3153.34 2730.59C3138.26 2757.43 3045.86 2738.86 2982.71 2751.66C2788.87 2775.61 2620.7 2873.76 2519.86 2929.85C2495.53 2943.32 2473.96 2957.66 2455.07 2972.66C2430.74 2992.01 2415.51 3050.6 2406.33 3127.77C2378.72 3359.56 2405.96 3758.38 2405.96 3758.38V3758.38Z" fill="#307E40"/>
<path d="M2409.32 3957.85H2494.56L2510.98 3828.91L2519.94 3758.38H2414.02L2412.38 3828.91L2409.32 3957.85V3957.85Z" fill="#F8AE9D"/>
<path d="M2409.32 3957.84H2494.56L2506.8 3861.82L2510.98 3828.91H2412.38L2411.56 3863.06L2409.32 3957.84V3957.84Z" fill="url(#paint2_linear_0_1)"/>
<path d="M2198.9 4131.43H2521.43C2523.82 4125.84 2525.16 4117.86 2525.68 4108.33C2527.7 4073.12 2519.04 4017.02 2514.71 3981.61C2514.19 3977.47 2513.74 3973.63 2513.37 3970.16C2512.77 3964.2 2512.39 3959.29 2512.39 3955.73C2512.39 3926.86 2492.54 3931.77 2492.54 3931.77C2459.92 3973.05 2422.98 3911.18 2401.41 3931.48C2401.41 3931.48 2400.51 3932.35 2398.57 3934.27C2396.77 3936.1 2394.01 3938.99 2390.21 3943.13C2384.68 3949.09 2377 3957.65 2366.55 3969.78C2340.95 3999.5 2297.43 4019.04 2260.33 4039.06C2255.63 4041.56 2251.22 4044.15 2247.12 4046.65C2244.06 4048.58 2241.15 4050.5 2238.39 4052.43C2208.08 4073.5 2198.46 4093.71 2196.29 4108.33C2194.13 4122.47 2198.9 4131.43 2198.9 4131.43V4131.43Z" fill="#307E40"/>
<path d="M2198.9 4131.43H2521.43C2523.82 4125.85 2525.16 4117.86 2525.68 4108.34H2196.29C2194.13 4122.48 2198.9 4131.43 2198.9 4131.43Z" fill="#307E40"/>
<path d="M3218.99 2031.98L3111.78 2541.58L3150 2484.35C3135.86 2494.16 3119.47 2501.6 3101.33 2506.97C3083.2 2512.25 3063.39 2515.37 3042.79 2516.69C3022.12 2518.1 3000.57 2517.82 2978.52 2516.69C2956.47 2515.46 2933.98 2513.39 2911.13 2510.84H2910.99C2877.25 2507.07 2847.59 2539.6 2844.69 2583.44C2841.92 2625.21 2864.78 2662.26 2896.12 2668.86C2919.69 2673.76 2943.7 2678.38 2968.29 2682.06C2992.89 2685.74 3018.13 2688.57 3044.24 2689.32C3070.36 2690.07 3097.41 2688.75 3125.34 2683.47C3153.27 2678.19 3182.22 2668.77 3210.5 2652.93C3228.64 2642.74 3241.48 2623.41 3247.35 2600.97L3248.73 2595.69L3377.27 2094.4C3391.71 2038.01 3368.35 1977.2 3324.97 1958.35C3281.67 1939.58 3234.81 1969.94 3220.3 2026.32C3219.86 2028.11 3219.35 2030.28 3218.99 2031.98V2031.98Z" fill="#F8AE9D"/>
<path d="M2616.3 3758.87H2737.07C2737.07 3758.87 2765.06 3586.06 2774.39 3489.07C2783.79 3392.18 2788.65 3162.41 2788.65 3162.41C2788.65 3162.41 2884.93 3202.73 3086.46 3187.52C3532.96 3153.94 3363.68 2731.07 3363.68 2731.07C3348.6 2757.91 3235.45 2794.96 3172.3 2807.75C2978.46 2831.71 2831.04 2874.15 2730.2 2930.34C2705.87 2943.81 2684.3 2958.14 2665.41 2973.15C2641.08 2992.49 2625.85 3051.09 2616.67 3128.25C2588.98 3360.04 2616.3 3758.87 2616.3 3758.87V3758.87Z" fill="#307E40"/>
<path d="M2619.59 3958.41H2704.9L2721.32 3829.48L2730.28 3758.86H2624.36L2622.65 3829.48L2619.59 3958.41Z" fill="#F8AE9D"/>
<path d="M2619.59 3958.42H2704.9L2717.06 3862.39L2721.32 3829.48H2622.65L2621.82 3863.64L2619.59 3958.42V3958.42Z" fill="url(#paint3_linear_0_1)"/>
<path d="M2409.17 4131.99H2731.7C2734.09 4126.41 2735.43 4118.42 2735.95 4108.9C2737.97 4073.69 2729.31 4017.59 2724.98 3982.18C2724.46 3978.04 2724.01 3974.2 2723.64 3970.73C2723.04 3964.77 2722.66 3959.85 2722.66 3956.29C2722.66 3927.43 2702.81 3932.34 2702.81 3932.34C2670.19 3973.62 2633.24 3911.75 2611.67 3932.05C2611.67 3932.05 2610.78 3932.92 2608.84 3934.84C2607.04 3936.67 2604.28 3939.56 2600.48 3943.7C2594.95 3949.66 2587.26 3958.22 2576.82 3970.34C2551.22 4000.07 2507.69 4019.61 2470.6 4039.62C2465.9 4042.12 2461.49 4044.72 2457.39 4047.22C2454.33 4049.14 2451.42 4051.08 2448.66 4053C2418.35 4074.07 2408.73 4094.27 2406.56 4108.9C2404.47 4122.94 2409.17 4131.99 2409.17 4131.99V4131.99Z" fill="#307E40"/>
<path d="M2409.17 4131.99H2731.7C2734.09 4126.41 2735.43 4118.42 2735.95 4108.9H2406.56C2404.47 4122.95 2409.17 4131.99 2409.17 4131.99Z" fill="#307E40"/>
<path d="M1956.2 2725.62V2768.8C1956.2 2793.69 1968.06 2813.78 1982.78 2813.78H3830.07C3844.73 2813.78 3856.66 2793.69 3856.66 2768.8V2725.62C3856.66 2700.84 3844.81 2680.63 3830.07 2680.63H1982.78C1968.13 2680.76 1956.2 2700.84 1956.2 2725.62V2725.62Z" fill="#E1E4E5"/>
<path d="M2050.67 2875.17H3713.45C3720.91 2875.17 3726.96 2868.82 3726.96 2860.93V2785.98H2037.23V2860.93C2037.23 2868.82 2043.28 2875.17 2050.67 2875.17ZM3803.32 4142.86L3567.75 2884.05H3650.53L3886.02 4142.86H3803.32V4142.86ZM2189.72 4142.86L2425.29 2884.05H2342.59L2107.03 4142.86H2189.72V4142.86Z" fill="#E1E4E5"/>
<path d="M2179.72 2021.27L2266.31 2493.31L2268.62 2505.72L2274.44 2537.48C2275.66 2544.16 2278.6 2550.11 2282.77 2554.37C2286.94 2558.63 2292.11 2560.95 2297.43 2560.95H2880.75C2895.98 2560.95 2907.33 2542.58 2903.82 2523.43L2809.1 2007.23C2807.88 2000.55 2804.94 1994.59 2800.77 1990.33C2796.6 1986.07 2791.43 1983.75 2786.11 1983.75H2202.79C2187.48 1983.84 2176.21 2002.22 2179.72 2021.27V2021.27Z" fill="#66F684"/>
<path d="M2463.14 2292.61C2465.9 2325.14 2488.59 2351.4 2513.82 2351.4C2539.05 2351.4 2557.18 2325.04 2554.42 2292.61C2551.66 2260.09 2528.97 2233.83 2503.74 2233.83C2478.51 2233.83 2460.38 2260.09 2463.14 2292.61V2292.61Z" fill="white"/>
<path d="M2762.9 1983.84L2863.74 2561.05H2880.76C2895.99 2561.05 2907.26 2542.67 2903.75 2523.52L2809.03 2007.32C2807.81 2000.64 2804.87 1994.69 2800.7 1990.43C2796.53 1986.16 2791.36 1983.84 2786.04 1983.84H2762.9V1983.84ZM2594.35 2556.37L2610.35 2671.76H2557.49L2541.49 2556.37H2594.35Z" fill="#307E40"/>
<path d="M2683.83 2661.35L2671.88 2639.69C2669.77 2635.89 2666.98 2632.78 2663.74 2630.64C2660.51 2628.5 2656.93 2627.38 2653.3 2627.38H2493.04C2488.88 2627.37 2484.8 2628.83 2481.25 2631.62C2477.69 2634.4 2474.8 2638.39 2472.89 2643.16L2464.83 2663.08C2461.02 2672.41 2466.33 2683.48 2474.46 2683.48H2674.95C2683.75 2683.48 2688.9 2670.59 2683.83 2661.35V2661.35Z" fill="#307E40"/>
<path d="M3012.04 1902.69C3012.04 1902.69 3173.57 1882.41 3162.22 1752.92C3150.87 1623.44 3164.06 1533.61 3060.45 1541.1C2956.85 1548.58 2941.14 1600.89 2936.79 1645.29C2932.44 1689.7 2969.74 1904.62 3012.04 1902.69Z" fill="#F8AE9D"/>
<path d="M2876.11 1531.44C2876.11 1531.44 2892.77 1651.61 2924.5 1655.99C2956.24 1660.37 2944.86 1609.84 2944.86 1609.84L2936.31 1552.84L2876.11 1531.44Z" fill="#002C54"/>
<path d="M3150.64 1492.88C3146.39 1447.36 3109.28 1434.57 3109.28 1434.57C3072.05 1417.44 2998.59 1435.8 2923.71 1467.04C2906.08 1474.37 2882.59 1462.98 2870.92 1475.7C2856.8 1491.08 2876.35 1551.09 2876.35 1551.09C2914.3 1662.67 3020.09 1612.01 3051.72 1593.8C3061.68 1622.49 3063.69 1663.8 3084.54 1682.81C3096.48 1693.6 3115.6 1691.62 3134.85 1685.04C3137.63 1690.59 3147.06 1694.74 3149.46 1702.57C3157.59 1728.77 3159.77 1771.01 3161.96 1803.47L3170.77 1796.51C3171.3 1787.5 3245.24 1485.25 3150.64 1492.88V1492.88Z" fill="#002C54"/>
<path d="M1681.62 1515.59H1485.46C1415.64 1515.59 1359.04 1588.56 1359.04 1678.56V1790.26C1359.04 1880.26 1415.64 1953.22 1485.46 1953.22H1681.62C1751.45 1953.22 1808.05 1880.26 1808.05 1790.26V1678.56C1808.05 1588.56 1751.45 1515.59 1681.62 1515.59Z" fill="#66F684"/>
<path d="M1617.54 1891.16L1613.01 1885.32C1595.73 1863.04 1567.71 1863.04 1550.43 1885.32L1545.89 1891.16C1528.61 1913.44 1528.61 1949.55 1545.89 1971.83L1550.43 1977.68C1567.71 1999.95 1595.73 1999.95 1613.01 1977.68L1617.54 1971.83C1634.82 1949.55 1634.82 1913.44 1617.54 1891.16Z" fill="#66F684"/>
<path fill-rule="evenodd" clip-rule="evenodd" d="M1629.26 1609.7C1668.54 1609.7 1694.88 1657.03 1694.88 1701.1C1694.88 1790.56 1585.53 1863.81 1583.54 1863.81C1581.55 1863.81 1472.2 1790.56 1472.2 1701.1C1472.2 1657.03 1498.54 1609.7 1537.82 1609.7C1560.27 1609.7 1575.02 1624.08 1583.54 1636.88C1592.06 1624.08 1606.81 1609.7 1629.26 1609.7Z" fill="white"/>
</g>
<defs>
<filter id="filter0_d_0_1" x="0" y="0" width="5724" height="4955" filterUnits="userSpaceOnUse" color-interpolation-filters="sRGB">
<feFlood flood-opacity="0" result="BackgroundImageFix"/>
<feColorMatrix in="SourceAlpha" type="matrix" values="0 0 0 0 0 0 0 0 0 0 0 0 0 0 0 0 0 0 127 0" result="hardAlpha"/>
<feOffset dx="30" dy="61"/>
<feGaussianBlur stdDeviation="2.5"/>
<feColorMatrix type="matrix" values="0 0 0 0 0.0583333 0 0 0 0 0.0554167 0 0 0 0 0.0554167 0 0 0 0.52 0"/>
<feBlend mode="normal" in2="BackgroundImageFix" result="effect1_dropShadow_0_1"/>
<feBlend mode="normal" in="SourceGraphic" in2="effect1_dropShadow_0_1" result="shape"/>
</filter>
<linearGradient id="paint0_linear_0_1" x1="3200.56" y1="4314.18" x2="3200.28" y2="3796.17" gradientUnits="userSpaceOnUse">
<stop stop-color="white"/>
<stop offset="1" stop-color="#EEEEEE"/>
</linearGradient>
<linearGradient id="paint1_linear_0_1" x1="849.45" y1="2541.68" x2="1815.88" y2="1542.91" gradientUnits="userSpaceOnUse">
<stop stop-color="white"/>
<stop offset="1" stop-color="#EEEEEE"/>
</linearGradient>
<linearGradient id="paint2_linear_0_1" x1="2457.99" y1="4030.13" x2="2463.03" y2="3688.68" gradientUnits="userSpaceOnUse">
<stop stop-color="white"/>
<stop offset="1" stop-color="#EEEEEE"/>
</linearGradient>
<linearGradient id="paint3_linear_0_1" x1="2668.28" y1="4030.7" x2="2673.33" y2="3689.26" gradientUnits="userSpaceOnUse">
<stop stop-color="white"/>
<stop offset="1" stop-color="#EEEEEE"/>
</linearGradient>
</defs>
</svg>
